<?xml version="1.0" encoding="UTF-8" standalone="no"?>
<svg
   height="96"
   width="96"
   fill="#000000"
   version="1.1"
   x="0px"
   y="0px"
   viewBox="-20.794 -3 32 32"
   overflow="visible"
   enable-background="new -20.794 -3 100 100"
   xml:space="preserve"
   id="svg6"
   sodipodi:docname="mic_muted.svg"
   inkscape:version="1.3.2 (091e20ef0f, 2023-11-25)"
   xmlns:inkscape="http://www.inkscape.org/namespaces/inkscape"
   xmlns:sodipodi="http://sodipodi.sourceforge.net/DTD/sodipodi-0.dtd"
   xmlns="http://www.w3.org/2000/svg"
   xmlns:svg="http://www.w3.org/2000/svg"><defs
     id="defs10" /><sodipodi:namedview
     id="namedview8"
     pagecolor="#ffffff"
     bordercolor="#666666"
     borderopacity="1.0"
     inkscape:pageshadow="2"
     inkscape:pageopacity="0.0"
     inkscape:pagecheckerboard="0"
     showgrid="false"
     inkscape:zoom="2.0388245"
     inkscape:cx="-4.1690689"
     inkscape:cy="88.040926"
     inkscape:window-width="1902"
     inkscape:window-height="1023"
     inkscape:window-x="0"
     inkscape:window-y="0"
     inkscape:window-maximized="1"
     inkscape:current-layer="svg6"
     inkscape:showpageshadow="0"
     inkscape:deskcolor="#d1d1d1" /><g
     id="g2"
     transform="matrix(0.33669569,0,0,0.33669569,-14.627424,-2.8246973)"><g
       id="g1"><path
         id="path2"
         style="stroke-width:1"
         d="M 29.205999,-3e-8 C 20.566,-3e-8 13.564073,7.0049272 13.564073,15.641927 v 31.419269 c -2.93e-4,2.52311 0.610687,4.898323 1.671223,7.008463 L 44.157173,11.036458 C 42.189659,4.6466026 36.239969,-3e-8 29.205999,-3e-8 Z M 44.849229,25.401041 21.250923,60.513019 c 2.332753,1.382347 5.046203,2.190107 7.955076,2.190107 8.638,0 15.64323,-7.00193 15.64323,-15.64193 z M 2.7045872e-4,40.701823 v 6.380206 c 0,7.285434 2.68694264128,13.950527 7.11458324128,19.070964 L 10.771755,60.711589 C 7.9451404,56.898559 6.2698017,52.183146 6.2698017,47.082029 v -6.380206 z m 52.13997254128,0 v 6.380206 c 0,12.648 -10.287547,22.934897 -22.935547,22.934897 -4.413776,0 -8.537836,-1.255823 -12.039713,-3.42448 l -3.496743,5.203777 c 3.667306,2.313173 7.880923,3.83599 12.401693,4.320963 v 11.61198 H 8.821234 v 6.270833 h 40.769532 v -6.270833 h -17.25 v -11.61198 c 14.635,-1.569 26.07031,-13.989157 26.07031,-29.035157 v -6.380206 z" /></g><rect
       style="fill:#000000;fill-rule:evenodd;stroke-width:0.307916"
       id="rect55"
       width="4.3844833"
       height="89.276558"
       x="44.961884"
       y="-26.517612"
       transform="rotate(33.90421)" /></g></svg>
