<?xml version="1.0" encoding="UTF-8" standalone="no"?>
<svg
   height="96"
   width="96"
   fill="#000000"
   version="1.1"
   x="0px"
   y="0px"
   viewBox="-20.794 -3 32 32"
   overflow="visible"
   enable-background="new -20.794 -3 100 100"
   xml:space="preserve"
   id="svg2"
   sodipodi:docname="mic_unmuted.svg"
   inkscape:version="1.3.2 (091e20ef0f, 2023-11-25)"
   xmlns:inkscape="http://www.inkscape.org/namespaces/inkscape"
   xmlns:sodipodi="http://sodipodi.sourceforge.net/DTD/sodipodi-0.dtd"
   xmlns="http://www.w3.org/2000/svg"
   xmlns:svg="http://www.w3.org/2000/svg"><defs
     id="defs2" /><sodipodi:namedview
     id="namedview2"
     pagecolor="#dfdfdf"
     bordercolor="#eeeeee"
     borderopacity="1"
     inkscape:showpageshadow="0"
     inkscape:pageopacity="0"
     inkscape:pagecheckerboard="0"
     inkscape:deskcolor="#d1d1d1"
     showgrid="false"
     inkscape:zoom="4.46"
     inkscape:cx="75.896861"
     inkscape:cy="61.32287"
     inkscape:window-width="1902"
     inkscape:window-height="1023"
     inkscape:window-x="0"
     inkscape:window-y="0"
     inkscape:window-maximized="1"
     inkscape:current-layer="svg2"><inkscape:grid
       id="grid2"
       units="px"
       originx="0"
       originy="0"
       spacingx="0.33333333"
       spacingy="0.33333333"
       empcolor="#0099e5"
       empopacity="0.30196078"
       color="#0099e5"
       opacity="0.14901961"
       empspacing="5"
       dotted="false"
       gridanglex="30"
       gridanglez="30"
       visible="false" /></sodipodi:namedview><g
     id="g2"
     transform="matrix(0.33669457,0,0,0.33669457,-14.627333,-2.8246448)"><path
       fill="#000000"
       d="m 29.206,62.703 c 8.638,0 15.643,-7.002 15.643,-15.642 V 15.642 C 44.848,7.005 37.843,0 29.206,0 20.566,0 13.564,7.005 13.564,15.642 v 31.419 c -10e-4,8.64 7.001,15.642 15.642,15.642 z"
       id="path1" /><path
       fill="#000000"
       d="m 52.14,40.702 v 6.38 C 52.14,59.73 41.853,70.017 29.205,70.017 16.557,70.017 6.27,59.73 6.27,47.082 v -6.38 H 0 v 6.38 C 0,62.127 11.435,74.547 26.07,76.117 V 87.729 H 8.821 V 94 h 40.77 V 87.729 H 32.341 V 76.117 c 14.635,-1.569 26.07,-13.989 26.07,-29.035 v -6.38 z"
       id="path2" /></g></svg>
