<?xml version="1.0" encoding="UTF-8" standalone="no"?>
<svg
   role="img"
   viewBox="0 0 512 512"
   version="1.1"
   id="svg1998"
   sodipodi:docname="nixos.svg"
   width="512"
   height="512"
   inkscape:version="1.2.2 (b0a8486541, 2022-12-01)"
   xmlns:inkscape="http://www.inkscape.org/namespaces/inkscape"
   xmlns:sodipodi="http://sodipodi.sourceforge.net/DTD/sodipodi-0.dtd"
   xmlns="http://www.w3.org/2000/svg"
   xmlns:svg="http://www.w3.org/2000/svg"
   xmlns:rdf="http://www.w3.org/1999/02/22-rdf-syntax-ns#"
   xmlns:cc="http://creativecommons.org/ns#"
   xmlns:dc="http://purl.org/dc/elements/1.1/">
  <defs
     id="defs2002" />
  <sodipodi:namedview
     id="namedview2000"
     pagecolor="#ffffff"
     bordercolor="#ffffff"
     borderopacity="1"
     inkscape:showpageshadow="0"
     inkscape:pageopacity="0"
     inkscape:pagecheckerboard="0"
     inkscape:deskcolor="#505050"
     showgrid="true"
     inkscape:zoom="1.1380208"
     inkscape:cx="112.47597"
     inkscape:cy="252.63158"
     inkscape:window-width="1920"
     inkscape:window-height="1013"
     inkscape:window-x="0"
     inkscape:window-y="35"
     inkscape:window-maximized="1"
     inkscape:current-layer="svg1998">
    <inkscape:grid
       type="xygrid"
       id="grid2123" />
  </sodipodi:namedview>
  <title
     id="title1994">NixOS</title>
  <path
     d="m 156.9731,32.752007 -29.10766,0.04268 -14.25508,24.668963 33.22627,57.89524 -66.943367,-0.17072 -28.168711,49.93544 H 301.18836 l -28.87292,-49.76472 -68.11707,-0.12804 -47.24661,-82.478842 z m 131.77409,0 -57.34041,0.533498 124.75325,216.109495 28.61685,-49.93544 -33.93049,-59.00491 47.80145,-82.158744 -14.57518,-25.2238 H 355.56251 L 322.05882,90.796623 288.76853,32.752007 Z m 146.96811,89.521013 -124.75325,216.06682 57.53246,-0.17072 34.16523,-58.89821 95.02672,0.34143 14.55383,-25.24514 -14.21239,-24.6903 -66.79399,-0.17072 33.58905,-57.8739 -29.129,-49.35926 z m -234.35514,49.06051 -57.53246,0.17072 -34.16523,58.89821 -95.026721,-0.34143 -14.55383303,25.2238 14.21239403,24.6903 66.793989,0.17072 -33.610393,57.83121 29.129007,49.40194 z m -44.85654,88.85948 -0.12804,0.2134 -0.0427,-0.0853 -28.63818,49.93544 33.93049,59.00491 -47.80145,82.15874 14.59651,25.2238 h 28.51015 l 0.0853,-0.12804 h 0.0214 l 33.43967,-57.57514 33.24762,58.04462 57.36174,-0.55484 -0.0853,-0.12803 h 0.2134 z m 54.41683,83.86593 28.89427,49.76472 68.11706,0.12804 47.26795,82.47884 29.08633,-0.0427 14.25508,-24.66896 -33.22628,-57.89524 66.94337,0.17072 28.16871,-49.93544 H 210.94179 Z"
     id="path1996"
     style="stroke-width:21.3399" />
  <metadata
     id="metadata2121">
    <rdf:RDF>
      <cc:Work
         rdf:about="">
        <dc:title>NixOS</dc:title>
      </cc:Work>
    </rdf:RDF>
  </metadata>
</svg>
